# xmcd
#
# Track frame offsets:
#	150
#	17447
#	38590
#	56600
#	78562
#	96050
#	113282
#	131220
#	143942
#	162707
#
# Disc length: 2414 seconds
#
# Revision: 1
# Processed by: cddbd v1.4PL0 Copyright (c) Steve Scherf et al.
# Submitted via: audiograbber 1.81.01
#
DISCID=7c096c0a
DTITLE=Mango - I Grandi Successi Originali cd1
DYEAR=1900
DGENRE=
TTITLE0=Se mi sfiori
TTITLE1=La mia ragazza e un gran caldo
TTITLE2=Aria di siepe
TTITLE3=Non svegliarti
TTITLE4=Per te che mi apri l'universo
TTITLE5=Su questa terra solo mia
TTITLE6=Tra le isole di un acquario
TTITLE7=Maria Wouruwuon
TTITLE8=Tu pioggia, io mattino
TTITLE9=Angela ormai
EXTD=
EXTT0=
EXTT1=
EXTT2=
EXTT3=
EXTT4=
EXTT5=
EXTT6=
EXTT7=
EXTT8=
EXTT9=
PLAYORDER=
